<svg width="360" height="203" viewBox="0 0 360 203" fill="none" xmlns="http://www.w3.org/2000/svg">
<circle cx="62" cy="53" r="33" fill="#ADD8E6" stroke="black" stroke-width="4"/>
<path d="M54.5927 163V199.5L165.093 199V189.5V157.5H168.593V154.5C167.593 154.5 165.493 153.9 165.093 151.5C164.693 149.1 162.593 143.167 161.593 140.5L151.093 128.5C147.093 125 142.593 122 137.093 119C132.703 116.606 122.093 114 116.593 113.5C112.193 113.1 108.759 113 107.593 113L106.593 108H104.093L102.593 107H99.5927V109L96.5927 111L97.5927 114.5L82.5927 121C74.0927 125 68.426 132.167 65.0927 137.5C62.2593 141 58.1927 149.6 56.5927 156C53.0927 155.5 47.0927 156.5 49.5927 159C51.5927 161 51.426 162.5 51.0927 163H54.5927Z" fill="#ADD8E6" stroke="black" stroke-width="4"/>
<path fill-rule="evenodd" clip-rule="evenodd" d="M136.378 130.521C135.124 128.223 132.647 125.03 130.115 122.019C127.567 118.988 124.903 116.073 123.224 114.31L121.776 115.69C123.431 117.427 126.067 120.312 128.585 123.306C131.12 126.32 133.476 129.377 134.622 131.479C135.761 133.567 136.986 137.257 138.062 141.107C139.107 144.845 139.986 148.637 140.488 151.045L108.97 152L108.929 152.002L108.888 152.006L85.468 154.65C85.1405 151.542 84.729 144.588 85.4884 139.652C85.9787 136.465 86.9649 132.515 88.0179 129.108C88.5437 127.407 89.082 125.855 89.5773 124.613C90.0858 123.337 90.5133 122.482 90.8 122.1C92.0434 120.442 93.0404 118.655 93.3944 117.947L91.6056 117.053C91.2929 117.678 90.3566 119.358 89.2 120.9C88.7367 121.518 88.2267 122.6 87.7196 123.872C87.1993 125.176 86.6438 126.781 86.1071 128.517C85.0351 131.985 84.0213 136.035 83.5116 139.348C82.7117 144.548 83.147 151.717 83.4806 154.875L77.8878 155.506L77.7966 155.517L77.7088 155.543L54.7088 162.543L55.2912 164.457L78.2034 157.483L109.071 153.998L141.953 153.002L161.876 155.492L161.938 155.5H162H167.5V153.5H162.062L142.124 151.008L142.047 150.998L141.97 151L141.417 151.017L142.479 150.797C141.975 148.362 141.07 144.44 139.988 140.568C138.914 136.726 137.639 132.833 136.378 130.521ZM110.962 132.225C109.382 126.698 107.99 118.024 107.491 114.365L105.509 114.635C106.01 118.309 107.418 127.102 109.038 132.775C110.603 138.25 111.334 147.546 111.501 151.542L113.499 151.458C113.332 147.454 112.597 137.95 110.962 132.225ZM115 158.978L114.978 157.969L113.969 158L97.9688 158.5L96.9699 158.532L97.0005 159.531L97.3481 170.908L97.0098 170.861L92.9056 200H94.9254L97.6467 180.679L97.688 182.031L97.7176 183H97.8493L95.4549 200H97.4747L98.3197 194H116.407L117.995 200H120.064L118.476 194H119.318L120.907 200H122.976L121 192.537V192H120.858L115.258 170.843L115 158.978ZM99.7282 184L99.869 183H113.495L113.76 184H99.7282ZM115.829 184L115.518 182.828L115.5 181.978L115.443 179.359L116.671 184H115.829ZM113.033 170.256L113.243 170.2L113.022 160.031L99.0301 160.468L99.6574 181H113.478L113.263 171.125L113.033 170.256ZM116.358 186H117.201L117.73 188H116.887L116.358 186ZM117.417 190H118.26L118.789 192H117.946L117.417 190ZM115.348 190L115.877 192H98.6014L98.8831 190H115.348ZM114.819 188H99.1648L99.5 185.62V186H114.289L114.819 188Z" fill="black"/>
<path fill-rule="evenodd" clip-rule="evenodd" d="M27.957 67.2032C19.785 73.6188 13.8702 79.1894 10.9819 83.2104C7.73333 87.733 8.49433 90.0434 13.1472 89.7842C17.8001 89.5251 26.0856 86.7109 36.7224 81.7769C47.3592 76.8429 59.7547 70.0639 71.9921 62.4883C84.2294 54.9127 95.6267 46.9625 104.421 39.8673C113.216 32.772 118.919 26.927 120.646 23.236C122.374 19.5451 120.032 18.2139 113.98 19.4484C108.567 20.5528 100.454 23.656 90.6862 28.3447L91.8647 32.2169C101.789 27.4228 109.75 24.3937 114.78 23.3676C115.248 23.2722 115.672 23.1981 116.054 23.1423C115.251 24.2762 114.034 25.7255 112.321 27.4818C109.725 30.1423 106.23 33.2691 101.91 36.7541C93.2737 43.7214 82.0189 51.5767 69.8866 59.0873C57.7561 66.5967 45.5026 73.2947 35.0392 78.1483C29.8069 80.5754 25.2133 82.4525 21.4044 83.7462C18.3208 84.7935 15.9023 85.4056 14.1466 85.6619C14.174 85.6231 14.202 85.5838 14.2306 85.544C16.8445 81.905 22.5935 76.458 30.9865 69.9118L27.957 69.3059V67.2032Z" fill="black"/>
<g filter="url(#filter0_d_39_2)">
<path d="M112 22L114.021 28.5643H120.56L115.269 32.6213L117.29 39.1857L112 35.1287L106.71 39.1857L108.731 32.6213L103.44 28.5643H109.979L112 22Z" fill="#ADD8E6"/>
</g>
<path d="M153.95 76.362L153.014 75.582L153.95 74.802L153.066 74.022L153.95 73.242L153.404 72.332L153.95 71.396L152.936 70.408L153.95 69.42L153.066 68.484L153.95 67.548L153.17 66.56L153.95 65.572L153.326 64.506L153.95 63.414L153.222 62.686L153.95 61.958L152.936 61.386L153.95 60.814L154.054 60.086L154.756 60.32L155.38 59.67L156.004 60.32L156.836 59.618L157.668 60.32L158.5 59.54L159.332 60.32L159.956 59.748L160.58 60.32L161.516 59.306L162.452 60.32L163.18 59.436L163.908 60.32L164.896 59.462L165.884 60.32L166.664 59.488L167.444 60.32L168.484 59.358L169.524 60.32L170.356 60.814L170.122 61.75L171.058 62.842L170.122 63.934L170.824 64.454L170.122 64.948L170.954 65.624L170.122 66.3L170.928 67.08L170.122 67.86L170.824 68.848L170.122 69.836L170.928 70.876L170.122 71.916L170.798 72.488L170.122 73.06L170.876 73.918L170.122 74.802L171.11 75.478L170.122 76.154L170.044 77.012L169.316 77.48L168.432 78.416L167.548 77.48L166.56 78.364L165.572 77.48L164.948 77.896L164.662 77.194L163.778 76.362L164.662 75.53L164.064 74.724L164.662 73.892L163.96 72.956L164.662 72.02L164.038 71.5L164.662 71.006L163.856 70.33L164.662 69.654L163.882 69.03L164.662 68.406L163.7 67.886L164.662 67.366L164.116 66.404L164.662 65.416L163.778 66.144L163.726 65L162.868 65.806L161.984 65L160.996 65.754L160.034 65L160.242 65.806L159.41 65.936L160.346 66.768L159.41 67.574L160.138 68.614L159.41 69.654L160.112 70.642L159.41 71.604L160.164 72.384L159.41 73.164L160.398 73.892L159.41 74.62L160.294 75.27L159.41 75.946L159.982 76.908L159.02 77.48L158.24 78.104L157.46 77.48L156.732 78.338L156.004 77.48L155.068 78.104L153.95 76.362ZM166.976 60.762L166.092 61.074V62.01H166.872L167.47 61.542L166.976 60.762ZM164.61 62.166L164.35 62.01L164.09 62.166L164.246 62.4L164.506 62.452L164.61 62.166ZM156.836 63.44L156.394 63.154L155.978 63.388L156.056 63.882L156.602 63.96L156.836 63.44ZM159.696 63.726L159.41 63.362L158.916 63.492L159.046 64.012L159.514 64.194L159.696 63.726ZM164.142 63.726L163.57 63.674L163.232 64.272L163.856 64.636L164.246 64.22L164.142 63.726ZM166.222 65.286L165.754 65L165.468 65.494L165.832 65.806H166.378L166.222 65.286ZM158.734 65.52L158.032 65.026L157.2 65.13L157.252 66.092L158.11 66.144L158.734 65.52ZM154.912 66.846L154.652 66.742L154.392 66.898L154.548 67.184L154.834 67.132L154.912 66.846ZM157.668 68.25L156.004 68.796L155.328 70.408L157.096 71.578L158.396 69.992L157.668 68.25ZM168.692 68.718L167.678 68.588L166.95 69.368L167.73 70.148L168.588 69.732L168.692 68.718ZM169.914 71.89L169.628 71.994L169.602 72.228L169.784 72.306L170.044 72.202L169.914 71.89ZM167.756 73.892L167.444 73.502L166.872 73.814L167.236 74.282L167.782 74.49L167.756 73.892ZM156.68 74.776L156.446 74.932V75.244L156.836 75.374L156.992 74.984L156.68 74.776ZM169.862 75.478L168.874 75.01L168.016 75.452L168.458 76.258L169.42 76.622L169.862 75.478ZM165.676 75.478L165.442 75.712L165.468 75.972L165.78 76.102L166.014 75.738L165.676 75.478ZM155.666 75.816L155.276 75.53L154.912 75.816L155.016 76.31L155.562 76.362L155.666 75.816ZM179.728 78L178.922 78.832L178.272 77.844L177.128 78.442L176.478 77.324L175.542 77.688L175.386 76.7L174.06 76.596V75.27L172.89 74.932L173.41 73.84L172.5 73.112L173.098 72.098L172.526 71.448L173.072 70.772L172.266 70.096L173.202 69.628L172.812 68.51L173.8 67.834L173.618 66.976L174.476 66.768L174.398 65.624L175.542 65.78L176.088 64.61L177.336 64.896L177.648 63.804L178.454 64.636L179.286 64.038L180.222 64.48L181.288 63.726L182.198 64.662L183.316 64.116L183.888 65.234L184.772 64.948L184.954 65.858L185.994 66.014L186.124 67.054L187.138 67.262L186.8 68.224L187.788 68.874L187.268 69.94L188.334 70.356L187.372 70.98L187.268 71.916L186.514 72.514L185.942 72.904L185.37 72.514L184.564 72.93L183.732 72.514L183.108 73.034L182.484 72.514L181.392 72.93L180.326 72.514L179.936 73.424H178.948L179.546 73.762L179.312 74.412L180.222 73.788L181.288 74.048L182.068 73.424L182.926 73.918L183.81 73.268L184.668 73.918L185.656 73.346L186.618 73.918L187.19 74.724L186.514 75.452L186.384 76.414L185.396 76.544L184.85 77.636L183.654 77.454L183.16 78.286L182.328 77.818L181.366 78.806L179.728 78ZM179.52 66.534L178.922 65.78L177.96 66.092L177.934 67.236L178.948 67.184L179.52 66.534ZM176.894 67.704L176.27 66.222L174.502 66.82L175.126 68.224L176.192 68.848L176.894 67.704ZM180.742 66.534L180.456 66.638L180.248 67.002L180.742 67.262L180.898 66.82L180.742 66.534ZM183.238 66.898L182.224 66.612L181.834 67.34L182.146 67.886L183.082 68.016L183.238 66.898ZM180.066 69.784L180.586 69.368L181.106 69.784L180.898 69.212L181.522 69.186L180.898 68.822L181.262 68.198L180.664 68.172L180.43 67.626L180.066 68.198L179.442 67.86L179.494 68.458L178.974 68.77L179.26 69.29L180.066 69.784ZM178.012 69.68L177.57 69.862L177.648 70.278L178.038 70.512L178.35 70.096L178.012 69.68ZM184.382 70.33L183.992 69.992L183.576 70.408L183.836 70.928L184.408 70.85L184.382 70.33ZM186.046 70.2L185.734 70.226V70.538L185.994 70.668L186.28 70.434L186.046 70.2ZM179.078 70.408H178.766L178.558 70.694L178.87 70.876L179.182 70.746L179.078 70.408ZM174.71 71.136L173.826 71.578L174.216 72.514L175.074 72.462L175.178 71.734L174.71 71.136ZM179.312 71.604L178.844 71.708L179.078 72.15L179.52 72.306L179.702 71.838L179.312 71.604ZM184.642 74.282L183.81 74.256L183.68 75.088L184.33 75.27L185.058 75.01L184.642 74.282ZM177.414 74.646L176.66 74.49L176.27 74.958L176.634 75.4L177.362 75.504L177.414 74.646ZM180.794 75.452L180.378 75.686L180.43 76.18L180.95 76.232L181.08 75.816L180.794 75.452ZM189.921 77.688L189.271 77.168L189.713 76.466L188.933 75.842L189.713 75.218L188.777 74.152L189.713 73.06L189.063 72.02L189.713 70.98L188.907 70.2L189.713 69.42L189.141 68.328L189.713 67.262L188.933 66.378L189.713 65.494L190.129 64.506L191.195 64.74L192.287 64.142L193.353 64.74L193.925 63.726L194.497 64.74L195.485 65.078L195.251 66.092L195.719 66.664L195.251 67.21L195.953 68.12L195.459 69.16L196.499 68.51L197.539 69.16L197.617 68.302L198.371 67.938L197.695 67.366L198.371 66.82L197.851 66.04L198.371 65.286L198.891 64.61L199.749 64.74L200.477 64.194L201.179 64.74L201.803 63.856L202.427 64.74L203.467 63.986L203.909 65.182L204.533 65.962L203.909 66.742L204.793 67.73L203.909 68.692L204.793 69.42L203.909 70.148L204.507 71.084L203.909 72.02L204.845 72.956L203.909 73.892L204.455 74.542L203.909 75.218L204.455 76.258L203.909 77.298L203.129 78.208L202.011 77.74L201.101 78.26L200.165 77.74L199.099 78.442L198.371 77.402L197.747 76.752L198.371 76.076L197.877 75.504L198.371 74.932L197.799 74.152L197.955 73.19L197.227 73.71L196.499 73.19L196.317 74.308L195.251 73.918L195.615 74.568L195.251 75.244L195.875 75.972L195.251 76.674L194.887 77.558L193.977 77.74L193.145 78.676L192.339 77.74L191.247 78.572L189.921 77.688ZM192.287 66.352L192.027 66.248L191.793 66.3L191.871 66.534H192.079L192.287 66.352ZM199.411 66.638L199.229 66.534L199.099 66.69L199.229 66.872L199.411 66.82V66.638ZM193.535 67.184L193.353 66.794L192.937 67.054L193.119 67.392L193.405 67.47L193.535 67.184ZM191.325 68.172L191.039 67.496L190.389 67.99L190.441 68.77L191.169 68.692L191.325 68.172ZM201.153 69.602L200.321 69.732L200.295 70.824L201.361 70.85L201.621 70.096L201.153 69.602ZM194.237 71.448L193.847 71.188L193.275 71.474L193.639 72.046L194.211 71.916L194.237 71.448ZM197.487 71.682L197.123 71.656L197.149 71.994L197.357 72.176L197.539 71.968L197.487 71.682ZM195.485 71.786H194.991L195.147 72.306L195.641 72.488L195.771 71.994L195.485 71.786ZM192.495 72.41L191.975 72.722L191.741 73.32L192.365 73.294L192.807 72.982L192.495 72.41ZM194.185 73.918L193.769 73.684L193.457 73.814L193.301 74.334L193.847 74.256L194.185 73.918ZM201.673 73.71L201.309 73.996L201.257 74.412L201.725 74.516L201.985 74.126L201.673 73.71ZM191.897 74.256L191.169 74.906L191.429 75.712L192.391 75.946L192.469 74.984L191.897 74.256ZM200.659 75.946L200.269 75.556L199.697 75.712L199.931 76.206L200.295 76.336L200.659 75.946ZM203.493 75.946L203.129 76.102L203.285 76.414L203.623 76.596L203.857 76.18L203.493 75.946ZM200.503 77.194L200.243 77.09L200.113 77.376L200.347 77.532L200.503 77.402V77.194ZM212.569 78L211.945 78.624L211.425 77.896L210.463 78.312L209.787 77.532L209.007 77.766L208.643 77.038L207.577 77.298V76.18L206.537 76.284L206.979 75.348L205.965 75.088L206.589 74.256L207.057 73.398L207.863 73.944L208.435 73.034L209.007 73.944L209.917 73.112L210.853 73.944L211.815 73.71L212.413 74.49L213.271 73.762L214.389 73.97L213.609 73.502L213.453 72.644L212.829 73.294L212.231 72.618L211.425 72.696L211.347 71.89L210.463 71.032L211.347 70.148L211.841 69.628L212.517 69.836L213.011 69.368L213.531 69.81V69.004L214.337 68.9L213.297 68.874L212.803 67.964L212.439 68.692L211.685 68.458L210.697 69.29L209.579 68.614L208.929 69.238L208.253 68.614L207.265 69.42L206.719 68.276L206.043 67.288L207.187 67.002L207.525 65.78L208.747 65.494L208.955 64.298L209.995 64.922L210.463 64.22L211.217 64.636L212.257 63.96L213.401 64.48L213.999 63.882L214.571 64.532L215.559 63.778L216.339 64.766L217.379 64.09L217.821 65.26L218.913 64.844L218.835 66.014L219.771 66.534L219.589 67.6L220.161 68.64L219.303 69.446L219.693 70.512L218.575 70.356L219.459 70.798L218.965 71.656L220.083 71.812L219.745 72.878L220.369 73.294L219.927 73.918L220.265 75.088L219.329 75.894L218.991 76.96L217.873 77.064L217.639 77.974L216.807 77.506L216.131 78.494L215.065 77.87L214.207 78.962L212.569 78ZM211.555 66.066L211.321 66.248L211.399 66.482L211.659 66.534L211.789 66.274L211.555 66.066ZM209.787 66.144L209.397 66.092L209.371 66.456L209.605 66.612L209.891 66.482L209.787 66.144ZM212.491 66.352L212.075 66.534L212.283 66.976L212.725 67.002L212.881 66.56L212.491 66.352ZM217.093 67.47L216.521 67.236L216.131 67.678L216.365 68.276L217.119 68.198L217.093 67.47ZM219.303 67.678L219.095 67.548L218.965 67.73L219.017 67.938L219.303 67.964V67.678ZM215.949 69.238L215.351 69.342L215.429 69.94L215.923 70.07L216.391 69.68L215.949 69.238ZM218.289 69.94L217.717 69.68L217.067 69.758L217.301 70.408L217.925 70.538L218.289 69.94ZM212.179 70.85L212.049 70.668L211.867 70.772V70.954L212.101 71.11L212.179 70.85ZM215.117 71.916L214.519 71.448L213.843 71.76L214.025 72.54L214.727 72.462L215.117 71.916ZM216.573 72.046L216.235 72.02L216.157 72.41L216.495 72.488L216.755 72.306L216.573 72.046ZM213.947 74.542L213.713 74.672L213.765 75.01L214.077 74.984L214.155 74.724L213.947 74.542ZM216.339 75.166L215.637 74.932L215.065 75.374L215.325 76.206L216.313 76.102L216.339 75.166ZM208.045 75.738L207.863 75.556L207.681 75.712L207.707 75.946L207.967 76.024L208.045 75.738ZM211.815 75.972L211.321 75.608L210.879 76.024L211.191 76.388L211.633 76.492L211.815 75.972ZM228.706 78L227.901 78.832L227.251 77.844L226.107 78.442L225.457 77.324L224.521 77.688L224.365 76.7L223.039 76.596V75.27L221.869 74.932L222.389 73.84L221.479 73.112L222.077 72.098L221.505 71.448L222.051 70.772L221.245 70.096L222.181 69.628L221.791 68.51L222.778 67.834L222.597 66.976L223.455 66.768L223.377 65.624L224.521 65.78L225.067 64.61L226.315 64.896L226.627 63.804L227.433 64.636L228.265 64.038L229.201 64.48L230.267 63.726L231.177 64.662L232.295 64.116L232.867 65.234L233.751 64.948L233.933 65.858L234.973 66.014L235.103 67.054L236.117 67.262L235.779 68.224L236.767 68.874L236.247 69.94L237.312 70.356L236.35 70.98L236.247 71.916L235.493 72.514L234.921 72.904L234.349 72.514L233.543 72.93L232.711 72.514L232.087 73.034L231.463 72.514L230.371 72.93L229.305 72.514L228.915 73.424H227.926L228.525 73.762L228.291 74.412L229.201 73.788L230.267 74.048L231.047 73.424L231.905 73.918L232.789 73.268L233.647 73.918L234.635 73.346L235.597 73.918L236.169 74.724L235.493 75.452L235.363 76.414L234.375 76.544L233.829 77.636L232.633 77.454L232.139 78.286L231.307 77.818L230.345 78.806L228.706 78ZM228.499 66.534L227.901 65.78L226.939 66.092L226.913 67.236L227.926 67.184L228.499 66.534ZM225.873 67.704L225.249 66.222L223.481 66.82L224.105 68.224L225.171 68.848L225.873 67.704ZM229.721 66.534L229.435 66.638L229.227 67.002L229.721 67.262L229.877 66.82L229.721 66.534ZM232.217 66.898L231.203 66.612L230.813 67.34L231.125 67.886L232.061 68.016L232.217 66.898ZM229.045 69.784L229.565 69.368L230.085 69.784L229.877 69.212L230.501 69.186L229.877 68.822L230.241 68.198L229.643 68.172L229.409 67.626L229.045 68.198L228.421 67.86L228.473 68.458L227.953 68.77L228.239 69.29L229.045 69.784ZM226.991 69.68L226.549 69.862L226.627 70.278L227.017 70.512L227.329 70.096L226.991 69.68ZM233.361 70.33L232.971 69.992L232.555 70.408L232.815 70.928L233.387 70.85L233.361 70.33ZM235.025 70.2L234.713 70.226V70.538L234.973 70.668L235.259 70.434L235.025 70.2ZM228.057 70.408H227.744L227.537 70.694L227.849 70.876L228.161 70.746L228.057 70.408ZM223.689 71.136L222.805 71.578L223.195 72.514L224.053 72.462L224.157 71.734L223.689 71.136ZM228.291 71.604L227.823 71.708L228.057 72.15L228.499 72.306L228.681 71.838L228.291 71.604ZM233.621 74.282L232.789 74.256L232.659 75.088L233.309 75.27L234.037 75.01L233.621 74.282ZM226.393 74.646L225.639 74.49L225.249 74.958L225.613 75.4L226.341 75.504L226.393 74.646ZM229.773 75.452L229.357 75.686L229.409 76.18L229.929 76.232L230.059 75.816L229.773 75.452ZM238.9 77.688L238.25 77.168L238.692 76.466L237.912 75.842L238.692 75.218L237.756 74.152L238.692 73.06L238.042 72.02L238.692 70.98L237.886 70.2L238.692 69.42L238.12 68.328L238.692 67.262L237.912 66.378L238.692 65.494L239.108 64.506L240.174 64.74L241.266 64.142L242.332 64.74L242.904 63.726L243.476 64.74L244.464 65.078L244.23 66.092L244.698 66.664L244.23 67.21L244.932 68.12L244.438 69.16L245.478 68.51L246.518 69.16L246.596 68.302L247.35 67.938L246.674 67.366L247.35 66.82L246.83 66.04L247.35 65.286L247.87 64.61L248.728 64.74L249.456 64.194L250.158 64.74L250.782 63.856L251.406 64.74L252.446 63.986L252.888 65.182L253.512 65.962L252.888 66.742L253.772 67.73L252.888 68.692L253.772 69.42L252.888 70.148L253.486 71.084L252.888 72.02L253.824 72.956L252.888 73.892L253.434 74.542L252.888 75.218L253.434 76.258L252.888 77.298L252.108 78.208L250.99 77.74L250.08 78.26L249.144 77.74L248.078 78.442L247.35 77.402L246.726 76.752L247.35 76.076L246.856 75.504L247.35 74.932L246.778 74.152L246.934 73.19L246.206 73.71L245.478 73.19L245.296 74.308L244.23 73.918L244.594 74.568L244.23 75.244L244.854 75.972L244.23 76.674L243.866 77.558L242.956 77.74L242.124 78.676L241.318 77.74L240.226 78.572L238.9 77.688ZM241.266 66.352L241.006 66.248L240.772 66.3L240.85 66.534H241.058L241.266 66.352ZM248.39 66.638L248.208 66.534L248.078 66.69L248.208 66.872L248.39 66.82V66.638ZM242.514 67.184L242.332 66.794L241.916 67.054L242.098 67.392L242.384 67.47L242.514 67.184ZM240.304 68.172L240.018 67.496L239.368 67.99L239.42 68.77L240.148 68.692L240.304 68.172ZM250.132 69.602L249.3 69.732L249.274 70.824L250.34 70.85L250.6 70.096L250.132 69.602ZM243.216 71.448L242.826 71.188L242.254 71.474L242.618 72.046L243.19 71.916L243.216 71.448ZM246.466 71.682L246.102 71.656L246.128 71.994L246.336 72.176L246.518 71.968L246.466 71.682ZM244.464 71.786H243.97L244.126 72.306L244.62 72.488L244.75 71.994L244.464 71.786ZM241.474 72.41L240.954 72.722L240.72 73.32L241.344 73.294L241.786 72.982L241.474 72.41ZM243.164 73.918L242.748 73.684L242.436 73.814L242.28 74.334L242.826 74.256L243.164 73.918ZM250.652 73.71L250.288 73.996L250.236 74.412L250.704 74.516L250.964 74.126L250.652 73.71ZM240.876 74.256L240.148 74.906L240.408 75.712L241.37 75.946L241.448 74.984L240.876 74.256ZM249.638 75.946L249.248 75.556L248.676 75.712L248.91 76.206L249.274 76.336L249.638 75.946ZM252.472 75.946L252.108 76.102L252.264 76.414L252.602 76.596L252.836 76.18L252.472 75.946ZM249.482 77.194L249.222 77.09L249.092 77.376L249.326 77.532L249.482 77.402V77.194ZM261.73 77.974L260.924 78.39L260.3 77.74L259.442 78.338L259.104 77.35L257.804 77.584L257.44 76.31L256.478 76.44L256.66 75.478L255.542 75.062L255.828 73.918L254.684 73.112L255.542 71.968L254.658 71.448L255.516 70.928L254.97 70.044L255.646 69.264L255.282 68.146L256.296 67.522L255.932 66.482L257.05 66.508L257.388 65.442L258.532 65.39L258.948 64.636L259.78 64.87L260.352 63.752L261.314 64.558L261.964 63.856L262.666 64.48L263.628 63.7L264.434 64.636L265.5 64.168L266.15 65.13L267.502 64.87L267.944 66.17H269.27L269.166 67.47L270.31 68.146L269.92 69.394L269.14 69.966L268.23 69.706L267.19 70.356L266.176 69.706L265.11 70.07L264.096 69.602L263.264 69.368L263.212 68.51L262.64 69.446L261.6 69.082L262.068 69.81L261.392 70.33L261.99 71.24L261.392 72.176L262.224 72.852L261.99 73.892L262.666 73.06L263.238 73.97L263.368 73.19L264.096 72.852L265.084 72.124L266.176 72.774L267.086 72.176L268.022 72.774L268.802 72.358L269.582 72.8L270.596 73.112L269.79 73.788L269.842 74.802L268.958 75.27L268.568 76.44L267.346 76.752L266.904 77.974L265.656 77.532L265.318 78.364L264.642 77.818L263.654 78.572L261.73 77.974ZM263.758 65.52L262.406 64.87L261.392 65.832L262.016 67.002L263.29 66.898L263.758 65.52ZM265.604 66.794L265.396 66.508L264.902 66.534L265.006 67.002L265.422 67.158L265.604 66.794ZM259.884 66.794L259.65 66.534L259.494 66.82L259.572 67.028L259.832 67.08L259.884 66.794ZM260.69 68.64L260.04 68.432L259.702 68.9L259.962 69.368L260.534 69.29L260.69 68.64ZM266.436 68.744L266.046 68.822L266.15 69.16L266.436 69.368L266.566 69.03L266.436 68.744ZM258.168 69.134L257.284 69.68L257.57 70.564L258.35 70.512L258.714 69.888L258.168 69.134ZM259.416 72.306L258.428 71.786L257.284 71.968L257.83 73.008L258.896 73.554L259.416 72.306ZM267.71 73.502L267.294 73.268L267.034 73.788L267.45 74.022L267.762 73.84L267.71 73.502ZM262.562 74.776L261.808 74.724L261.548 75.244L261.886 75.582L262.354 75.478L262.562 74.776ZM259.234 75.4L258.61 75.01L258.246 75.504V76.128L259.052 76.18L259.234 75.4ZM272.106 77.298L271.222 76.726L272.106 76.154L271.326 75.426L272.106 74.698L271.56 73.84L272.106 72.956L271.534 72.332L272.106 71.708L271.456 71.084L272.106 70.46L271.326 69.94L272.106 69.42L271.534 68.328L272.106 67.262L271.508 66.222L272.106 65.182L272.964 64.324L274.108 64.74L274.914 64.194L275.746 64.74L276.812 64.272L277.54 65.182L278.008 66.04L277.54 66.924L278.034 67.886L277.54 68.848L278.19 68.432L278.164 68.38L278.97 68.354L278.84 67.34L279.776 66.924L279.698 65.988L280.53 65.598L280.842 64.688L281.778 64.74L282.61 64.22L283.442 64.74L284.17 63.882L284.898 64.74L285.678 63.96L286.458 64.766L287.186 65.572L286.224 66.066L286.744 66.976L285.704 66.95L286.146 68.172L284.846 68.354L285.08 69.758L283.754 70.2L284.43 71.032L283.754 71.864L284.82 72.254L284.768 73.398H285.704L285.34 74.256L286.172 74.516L286.094 75.374L287.186 75.582L286.952 76.674L287.108 77.402L286.458 77.74L285.548 78.702L284.612 77.74L283.832 78.624L283.052 77.74L282.298 78.39L281.518 77.74L280.504 77.636L280.452 76.622L279.412 76.648L279.932 75.738L278.918 75.348L279.022 74.256L278.346 73.944L278.398 73.19L278.294 73.944L277.54 74.022L277.982 74.828L277.54 75.66L277.93 76.232L277.54 76.778L277.592 77.688L276.682 77.74L275.642 78.26L274.628 77.74L273.588 78.338L272.106 77.298ZM283.754 66.326L282.558 67.08L282.792 68.458L284.014 68.354L284.742 67.34L283.754 66.326ZM281.05 66.482L280.374 66.56L280.27 67.236L280.92 67.756L281.336 67.054L281.05 66.482ZM272.834 68.432L272.73 68.224L272.522 68.328L272.496 68.562L272.756 68.666L272.834 68.432ZM276.37 69.108L274.68 68.822L274.29 70.616L275.746 71.76L277.254 70.564L276.37 69.108ZM281.934 68.848L281.388 69.524L281.544 70.122L282.22 70.226L282.636 69.498L281.934 68.848ZM273.406 70.46L272.964 70.2L272.288 70.434L272.756 70.98L273.38 71.084L273.406 70.46ZM278.658 71.396L278.138 71.552L278.06 71.994L278.398 72.202L278.71 71.942L278.658 71.396ZM273.9 72.098L273.536 72.072L273.354 72.254L273.432 72.618L273.77 72.436L273.9 72.098ZM281.492 72.8L280.114 73.294V74.75L281.596 75.53L282.272 74.022L281.492 72.8ZM275.226 74.932L274.082 74.542L273.51 75.66L274.29 76.596L275.148 75.92L275.226 74.932ZM286.172 75.712L285.6 75.582L285.288 76.024L285.6 76.57L286.068 76.258L286.172 75.712ZM284.924 76.7L284.586 76.18L283.962 76.362L284.092 76.934L284.586 77.168L284.924 76.7ZM289.63 77.688L288.772 76.804L289.422 75.738L288.616 75.114L289.422 74.49L288.772 73.892L289.422 73.268L288.72 72.644L289.422 72.02L288.772 71.136L289.422 70.252L288.59 69.212L289.422 68.198L288.46 67.21L289.422 66.222L289.474 65.26L290.28 64.74L291.268 64.116L292.23 64.74L293.27 64.116L294.31 64.74L295.142 64.87L294.96 65.702L295.636 66.43L294.96 67.132L295.532 68.068L294.96 69.004L295.48 69.784L295.454 69.55L296.338 69.212L296.468 67.99L297.534 67.392L297.3 66.612L298.08 66.534L297.586 65.442L298.756 65.494L299.172 64.506L300.212 64.74L300.784 64.116L301.356 64.74L302.11 63.83L302.89 64.74L303.54 64.142L304.034 64.87L304.736 65.754L304.164 66.742L305.126 67.522L304.164 68.276L304.892 68.848L304.164 69.42L305.048 70.46L304.164 71.5L304.814 72.02L304.164 72.54L304.944 73.32L304.164 74.1L305.022 75.01L304.164 75.946L304.996 77.012L303.826 77.74L303.28 78.702L302.682 77.74L302.11 78.39L301.538 77.74L301.044 78.442L300.524 77.74L300.004 78.39L299.484 77.74L298.6 77.402L298.626 76.466L298.054 75.426L298.626 74.412L298.184 73.372L298.626 72.332L298.444 71.994L298.47 72.54L297.456 72.93L297.56 74.1L296.442 74.49L296.572 75.374L295.714 75.608V76.908L294.544 77.428L293.998 78.494L293.062 77.74L292.126 78.338L291.216 77.74L290.54 78.312L289.63 77.688ZM299.692 66.3L298.444 66.846L298.47 68.276L300.03 68.822L300.628 67.34L299.692 66.3ZM292.984 66.56L292.256 66.742L292.49 67.47L293.14 67.678L293.4 67.054L292.984 66.56ZM303.748 68.146L303.514 68.354L303.618 68.614H303.878L303.93 68.38L303.748 68.146ZM294.414 69.472L294.232 69.524L294.154 69.706L294.362 69.758L294.518 69.628L294.414 69.472ZM295.506 70.512L295.48 70.148L295.194 70.616L295.506 70.512ZM291.502 70.304L291.06 70.148L290.852 70.59L291.164 71.006L291.684 70.772L291.502 70.304ZM296.858 71.162L296.39 70.564L295.636 70.954L295.896 71.734L296.676 71.89L296.858 71.162ZM303.072 70.928H302.76L302.63 71.24L302.916 71.448L303.15 71.214L303.072 70.928ZM291.242 72.306L290.306 72.228L289.89 72.748L290.228 73.398L291.086 73.32L291.242 72.306ZM300.914 72.618L300.576 72.228L299.926 72.436L300.238 73.034L300.758 73.086L300.914 72.618ZM294.336 73.476L293.764 73.528L293.894 74.178L294.544 74.282L294.674 73.71L294.336 73.476ZM292.88 74.464L292.412 73.944L291.788 74.308L291.996 74.906L292.594 75.062L292.88 74.464ZM300.576 74.1L299.562 74.542L299.588 75.374L300.368 76.258L300.966 75.166L300.576 74.1ZM292.152 76.128L291.97 75.972L291.814 76.18L291.97 76.336H292.152V76.128ZM294.544 76.648L294.362 76.622L294.206 76.778L294.362 76.96L294.544 76.83V76.648ZM303.722 77.168L303.54 77.012L303.41 77.22L303.514 77.402H303.748L303.722 77.168ZM306.87 77.688L306.012 76.804L306.662 75.738L305.856 75.114L306.662 74.49L306.012 73.892L306.662 73.268L305.96 72.644L306.662 72.02L306.012 71.136L306.662 70.252L305.83 69.212L306.662 68.198L305.7 67.21L306.662 66.222L306.714 65.26L307.52 64.74L308.508 64.116L309.47 64.74L310.51 64.116L311.55 64.74L312.382 64.87L312.2 65.702L312.876 66.43L312.2 67.132L312.772 68.068L312.2 69.004L312.72 69.784L312.694 69.55L313.578 69.212L313.708 67.99L314.774 67.392L314.54 66.612L315.32 66.534L314.826 65.442L315.996 65.494L316.412 64.506L317.452 64.74L318.024 64.116L318.596 64.74L319.35 63.83L320.13 64.74L320.78 64.142L321.274 64.87L321.976 65.754L321.404 66.742L322.366 67.522L321.404 68.276L322.132 68.848L321.404 69.42L322.288 70.46L321.404 71.5L322.054 72.02L321.404 72.54L322.184 73.32L321.404 74.1L322.262 75.01L321.404 75.946L322.236 77.012L321.066 77.74L320.52 78.702L319.922 77.74L319.35 78.39L318.778 77.74L318.284 78.442L317.764 77.74L317.244 78.39L316.724 77.74L315.84 77.402L315.866 76.466L315.294 75.426L315.866 74.412L315.424 73.372L315.866 72.332L315.684 71.994L315.71 72.54L314.696 72.93L314.8 74.1L313.682 74.49L313.812 75.374L312.954 75.608V76.908L311.784 77.428L311.238 78.494L310.302 77.74L309.366 78.338L308.456 77.74L307.78 78.312L306.87 77.688ZM316.932 66.3L315.684 66.846L315.71 68.276L317.27 68.822L317.868 67.34L316.932 66.3ZM310.224 66.56L309.496 66.742L309.73 67.47L310.38 67.678L310.64 67.054L310.224 66.56ZM320.988 68.146L320.754 68.354L320.858 68.614H321.118L321.17 68.38L320.988 68.146ZM311.654 69.472L311.472 69.524L311.394 69.706L311.602 69.758L311.758 69.628L311.654 69.472ZM312.746 70.512L312.72 70.148L312.434 70.616L312.746 70.512ZM308.742 70.304L308.3 70.148L308.092 70.59L308.404 71.006L308.924 70.772L308.742 70.304ZM314.098 71.162L313.63 70.564L312.876 70.954L313.136 71.734L313.916 71.89L314.098 71.162ZM320.312 70.928H320L319.87 71.24L320.156 71.448L320.39 71.214L320.312 70.928ZM308.482 72.306L307.546 72.228L307.13 72.748L307.468 73.398L308.326 73.32L308.482 72.306ZM318.154 72.618L317.816 72.228L317.166 72.436L317.478 73.034L317.998 73.086L318.154 72.618ZM311.576 73.476L311.004 73.528L311.134 74.178L311.784 74.282L311.914 73.71L311.576 73.476ZM310.12 74.464L309.652 73.944L309.028 74.308L309.236 74.906L309.834 75.062L310.12 74.464ZM317.816 74.1L316.802 74.542L316.828 75.374L317.608 76.258L318.206 75.166L317.816 74.1ZM309.392 76.128L309.21 75.972L309.054 76.18L309.21 76.336H309.392V76.128ZM311.784 76.648L311.602 76.622L311.446 76.778L311.602 76.96L311.784 76.83V76.648ZM320.962 77.168L320.78 77.012L320.65 77.22L320.754 77.402H320.988L320.962 77.168ZM313.448 62.582L312.46 62.79L311.706 62.166L310.692 61.958L310.198 61.048L309.548 60.268L309.444 59.228L309.288 58.63L309.756 58.24L310.328 57.954L310.9 58.24L311.55 57.746L312.226 58.24L313.032 58.604L313.396 59.41L314.098 59.254L314.384 59.904L314.644 58.838L315.632 58.396L316.36 58.058L317.166 58.24L318.076 57.902L319.012 58.24L319.298 59.124L319.142 60.06L319.22 60.762L318.57 61.048L318.102 62.01L317.062 62.166L316.36 62.816L315.424 62.582L314.93 62.946L313.448 62.582ZM317.504 59.722L316.854 59.956L316.698 60.476L317.192 60.892L317.686 60.424L317.504 59.722ZM153.95 107.362L153.014 106.582L153.95 105.802L153.066 105.022L153.95 104.242L153.404 103.332L153.95 102.396L152.936 101.408L153.95 100.42L153.066 99.484L153.95 98.548L153.17 97.56L153.95 96.572L153.326 95.506L153.95 94.414L153.222 93.686L153.95 92.958L152.936 92.386L153.95 91.814L154.054 91.086L154.756 91.32L155.38 90.67L156.004 91.32L156.836 90.618L157.668 91.32L158.5 90.54L159.332 91.32L159.956 90.748L160.58 91.32L161.516 90.306L162.452 91.32L163.18 90.436L163.908 91.32L164.896 90.462L165.884 91.32L166.664 90.488L167.444 91.32L168.484 90.358L169.524 91.32L170.356 91.814L170.122 92.75L171.058 93.842L170.122 94.934L170.824 95.454L170.122 95.948L170.954 96.624L170.122 97.3L170.928 98.08L170.122 98.86L170.824 99.848L170.122 100.836L170.928 101.876L170.122 102.916L170.798 103.488L170.122 104.06L170.876 104.918L170.122 105.802L171.11 106.478L170.122 107.154L170.044 108.012L169.316 108.48L168.432 109.416L167.548 108.48L166.56 109.364L165.572 108.48L164.948 108.896L164.662 108.194L163.778 107.362L164.662 106.53L164.064 105.724L164.662 104.892L163.96 103.956L164.662 103.02L164.038 102.5L164.662 102.006L163.856 101.33L164.662 100.654L163.882 100.03L164.662 99.406L163.7 98.886L164.662 98.366L164.116 97.404L164.662 96.416L163.778 97.144L163.726 96L162.868 96.806L161.984 96L160.996 96.754L160.034 96L160.242 96.806L159.41 96.936L160.346 97.768L159.41 98.574L160.138 99.614L159.41 100.654L160.112 101.642L159.41 102.604L160.164 103.384L159.41 104.164L160.398 104.892L159.41 105.62L160.294 106.27L159.41 106.946L159.982 107.908L159.02 108.48L158.24 109.104L157.46 108.48L156.732 109.338L156.004 108.48L155.068 109.104L153.95 107.362ZM166.976 91.762L166.092 92.074V93.01H166.872L167.47 92.542L166.976 91.762ZM164.61 93.166L164.35 93.01L164.09 93.166L164.246 93.4L164.506 93.452L164.61 93.166ZM156.836 94.44L156.394 94.154L155.978 94.388L156.056 94.882L156.602 94.96L156.836 94.44ZM159.696 94.726L159.41 94.362L158.916 94.492L159.046 95.012L159.514 95.194L159.696 94.726ZM164.142 94.726L163.57 94.674L163.232 95.272L163.856 95.636L164.246 95.22L164.142 94.726ZM166.222 96.286L165.754 96L165.468 96.494L165.832 96.806H166.378L166.222 96.286ZM158.734 96.52L158.032 96.026L157.2 96.13L157.252 97.092L158.11 97.144L158.734 96.52ZM154.912 97.846L154.652 97.742L154.392 97.898L154.548 98.184L154.834 98.132L154.912 97.846ZM157.668 99.25L156.004 99.796L155.328 101.408L157.096 102.578L158.396 100.992L157.668 99.25ZM168.692 99.718L167.678 99.588L166.95 100.368L167.73 101.148L168.588 100.732L168.692 99.718ZM169.914 102.89L169.628 102.994L169.602 103.228L169.784 103.306L170.044 103.202L169.914 102.89ZM167.756 104.892L167.444 104.502L166.872 104.814L167.236 105.282L167.782 105.49L167.756 104.892ZM156.68 105.776L156.446 105.932V106.244L156.836 106.374L156.992 105.984L156.68 105.776ZM169.862 106.478L168.874 106.01L168.016 106.452L168.458 107.258L169.42 107.622L169.862 106.478ZM165.676 106.478L165.442 106.712L165.468 106.972L165.78 107.102L166.014 106.738L165.676 106.478ZM155.666 106.816L155.276 106.53L154.912 106.816L155.016 107.31L155.562 107.362L155.666 106.816ZM172.994 107.882L172.344 106.998L172.994 106.14L172.084 105.386L173.046 104.684L173.514 103.592L174.71 103.436L174.242 102.344L174.996 101.382L174.32 100.498L174.996 99.614L174.112 98.678L174.996 97.742L174.606 96.598L175.438 95.74L175.958 94.908L176.478 95.74L176.998 95.142L177.518 95.74L178.402 94.856L179.286 95.74L179.91 95.22L180.534 95.74L181.47 95.116L182.406 95.74L183.186 95.142L183.966 95.74L184.486 95.22L185.006 95.74L185.578 95.038L186.15 95.74L187.164 95.506L187.736 96.39L188.646 96.91L187.736 97.43L188.49 98.47L187.736 99.484L188.49 100.576L187.736 101.668L188.334 102.708L187.736 103.748L188.464 104.788L187.736 105.802L188.594 106.478L187.736 107.154L187.632 108.116L186.878 108.74L186.15 109.364L185.422 108.74L184.408 109.572L183.368 108.74L182.484 108.532L182.198 107.674L181.652 106.738L182.198 105.802L181.73 104.97L182.198 104.138L181.548 103.098L182.198 102.058L181.834 101.382L182.198 100.706L181.262 100.68L181.21 99.77L180.768 100.654L180.196 99.874L180.768 100.758L180.196 101.616L180.742 102.422L180.118 103.202L180.508 104.086L179.936 104.866L180.17 105.932L179.338 106.634L179.078 107.856L177.856 108.064L177.362 108.948L176.452 108.532L176.01 109.546L175.334 108.662L174.424 109.676L172.994 107.882ZM185.656 96.676L184.642 96.442L184.564 97.508L185.292 98.054L186.228 97.534L185.656 96.676ZM176.66 97.04L176.166 97.274L176.244 97.768L176.712 98.002L176.998 97.482L176.66 97.04ZM181.002 98.47L180.352 98.392L180.17 99.146L180.872 99.302L181.366 98.938L181.002 98.47ZM184.252 98.834L184.018 98.678L183.602 98.782L183.862 99.146L184.252 99.224V98.834ZM178.116 99.042L177.466 98.704L177.128 99.458L177.648 99.822L178.142 99.588L178.116 99.042ZM179.598 100.68L179.104 100.576L178.896 101.044L179.234 101.512L179.728 101.174L179.598 100.68ZM184.928 100.914L183.836 100.836L183.134 101.694L183.992 102.396L184.824 101.954L184.928 100.914ZM186.436 103.254L185.916 102.448L185.344 103.228V104.008L186.28 104.112L186.436 103.254ZM177.648 103.254L177.128 102.708L176.608 103.124L176.504 103.8H177.206L177.648 103.254ZM179.884 103.644L179.702 103.436L179.468 103.54L179.494 103.748L179.728 103.852L179.884 103.644ZM185.396 104.814L184.356 105.62L184.408 106.504L185.37 107.102L185.89 106.036L185.396 104.814ZM176.894 105.36L176.322 105.698L176.4 106.27L177.076 106.686L177.492 105.906L176.894 105.36ZM175.204 106.374L174.944 106.348L174.762 106.556L174.97 106.764L175.23 106.66L175.204 106.374ZM193.302 108.818L192.314 108.974L191.768 108.168L190.702 108.324L190.78 107.258L189.714 107.232L190.26 106.348L189.298 105.49L190.104 104.502L189.662 103.436L190.754 103.072L191.092 102.084L192.132 101.954L192.808 101.252L193.796 101.278L194.368 100.784L195.122 100.966L195.538 100.238L196.162 100.784L196.578 100.108L197.176 100.628L197.54 99.744H198.502L197.488 99.614L197.358 98.6L197.124 99.51L196.214 99.224L195.798 99.926L195.148 99.432L194.342 99.796L193.51 99.432L192.574 99.848L191.664 99.432L191.04 99.458L190.988 98.834L190.494 97.82L191.612 97.638L192.08 96.624L193.172 96.416L193.562 95.584L194.42 95.896L195.122 94.908L196.162 95.558L196.682 94.804L197.306 95.48L198.008 94.83L198.658 95.532L199.256 94.96L199.698 95.662L200.66 95.116L201.206 96.078L202.22 95.74L202.454 96.78L203.39 96.858V97.768L204.274 98.106L203.962 98.99L205.002 99.302L204.17 100.004L204.716 100.602L204.222 101.252L204.924 102.084L204.222 102.916L205.106 103.54L204.222 104.164L204.82 104.814L204.222 105.49L204.924 106.27L204.222 107.05L204.404 108.038L203.676 108.74L203.052 109.598L202.428 108.74L201.596 109.26L200.79 108.74L199.88 109.52L198.996 108.688L198.632 108.506L198.606 108.766L197.514 108.22L197.41 109.156L196.578 108.714L195.876 109.78L193.302 108.818ZM200.244 96.806L199.802 96.91L199.75 97.404L200.296 97.82L200.712 97.17L200.244 96.806ZM203.65 99.016L202.922 98.626L202.48 99.406L203.052 99.9L203.78 99.77L203.65 99.016ZM198.736 101.252L198.398 101.174L198.138 101.434L198.372 101.72L198.632 101.538L198.736 101.252ZM203.208 101.356L202.844 101.226L202.376 101.434L202.688 101.928L203.104 101.72L203.208 101.356ZM200.686 101.278L199.36 102.11L199.542 103.618L201.102 103.852L201.362 102.5L200.686 101.278ZM196.37 101.876L196.084 101.278L195.252 101.408L195.278 102.344L196.084 102.474L196.37 101.876ZM198.034 102.656L197.774 102.604V102.89L197.956 103.02L198.138 102.864L198.034 102.656ZM197.748 105.36L197.852 104.788L198.398 104.554L198.19 103.982L198.58 103.514L198.164 103.566L198.086 103.176L197.67 103.566L197.124 103.384L196.708 103.774L196.136 103.67L195.98 104.216L195.434 104.372L196.032 104.736L195.668 105.334L196.266 105.126L197.748 105.36ZM202.818 105.23L200.972 104.788L200.608 106.738L202.064 107.752L203.312 106.66L202.818 105.23ZM193.874 105.23L193.588 105.386L193.718 105.698L194.108 105.802L194.16 105.412L193.874 105.23ZM191.95 105.334L191.638 105.36L191.69 105.672L192.002 105.776L192.184 105.49L191.95 105.334ZM196.266 106.426L195.746 106.166L195.174 106.504L195.408 107.31L196.188 107.05L196.266 106.426ZM194.16 107.18H193.458L193.51 107.96L194.16 108.168L194.576 107.648L194.16 107.18ZM207.161 108.688L206.511 108.168L206.953 107.466L206.173 106.842L206.953 106.218L206.017 105.152L206.953 104.06L206.303 103.02L206.953 101.98L206.147 101.2L206.953 100.42L206.381 99.328L206.953 98.262L206.173 97.378L206.953 96.494L207.369 95.506L208.435 95.74L209.527 95.142L210.593 95.74L211.165 94.726L211.737 95.74L212.725 96.078L212.491 97.092L212.959 97.664L212.491 98.21L213.193 99.12L212.699 100.16L213.739 99.51L214.779 100.16L214.857 99.302L215.611 98.938L214.935 98.366L215.611 97.82L215.091 97.04L215.611 96.286L216.131 95.61L216.989 95.74L217.717 95.194L218.419 95.74L219.043 94.856L219.667 95.74L220.707 94.986L221.149 96.182L221.773 96.962L221.149 97.742L222.033 98.73L221.149 99.692L222.033 100.42L221.149 101.148L221.747 102.084L221.149 103.02L222.085 103.956L221.149 104.892L221.695 105.542L221.149 106.218L221.695 107.258L221.149 108.298L220.369 109.208L219.251 108.74L218.341 109.26L217.405 108.74L216.339 109.442L215.611 108.402L214.987 107.752L215.611 107.076L215.117 106.504L215.611 105.932L215.039 105.152L215.195 104.19L214.467 104.71L213.739 104.19L213.557 105.308L212.491 104.918L212.855 105.568L212.491 106.244L213.115 106.972L212.491 107.674L212.127 108.558L211.217 108.74L210.385 109.676L209.579 108.74L208.487 109.572L207.161 108.688ZM209.527 97.352L209.267 97.248L209.033 97.3L209.111 97.534H209.319L209.527 97.352ZM216.651 97.638L216.469 97.534L216.339 97.69L216.469 97.872L216.651 97.82V97.638ZM210.775 98.184L210.593 97.794L210.177 98.054L210.359 98.392L210.645 98.47L210.775 98.184ZM208.565 99.172L208.279 98.496L207.629 98.99L207.681 99.77L208.409 99.692L208.565 99.172ZM218.393 100.602L217.561 100.732L217.535 101.824L218.601 101.85L218.861 101.096L218.393 100.602ZM211.477 102.448L211.087 102.188L210.515 102.474L210.879 103.046L211.451 102.916L211.477 102.448ZM214.727 102.682L214.363 102.656L214.389 102.994L214.597 103.176L214.779 102.968L214.727 102.682ZM212.725 102.786H212.231L212.387 103.306L212.881 103.488L213.011 102.994L212.725 102.786ZM209.735 103.41L209.215 103.722L208.981 104.32L209.605 104.294L210.047 103.982L209.735 103.41ZM211.425 104.918L211.009 104.684L210.697 104.814L210.541 105.334L211.087 105.256L211.425 104.918ZM218.913 104.71L218.549 104.996L218.497 105.412L218.965 105.516L219.225 105.126L218.913 104.71ZM209.137 105.256L208.409 105.906L208.669 106.712L209.631 106.946L209.709 105.984L209.137 105.256ZM217.899 106.946L217.509 106.556L216.937 106.712L217.171 107.206L217.535 107.336L217.899 106.946ZM220.733 106.946L220.369 107.102L220.525 107.414L220.863 107.596L221.097 107.18L220.733 106.946ZM217.743 108.194L217.483 108.09L217.353 108.376L217.587 108.532L217.743 108.402V108.194ZM230.408 109L229.602 109.832L228.952 108.844L227.808 109.442L227.158 108.324L226.222 108.688L226.066 107.7L224.74 107.596V106.27L223.57 105.932L224.09 104.84L223.18 104.112L223.778 103.098L223.206 102.448L223.752 101.772L222.946 101.096L223.882 100.628L223.492 99.51L224.48 98.834L224.298 97.976L225.156 97.768L225.078 96.624L226.222 96.78L226.768 95.61L228.016 95.896L228.328 94.804L229.134 95.636L229.966 95.038L230.902 95.48L231.968 94.726L232.878 95.662L233.996 95.116L234.568 96.234L235.452 95.948L235.634 96.858L236.674 97.014L236.804 98.054L237.818 98.262L237.48 99.224L238.468 99.874L237.948 100.94L239.014 101.356L238.052 101.98L237.948 102.916L237.194 103.514L236.622 103.904L236.05 103.514L235.244 103.93L234.412 103.514L233.788 104.034L233.164 103.514L232.072 103.93L231.006 103.514L230.616 104.424H229.628L230.226 104.762L229.992 105.412L230.902 104.788L231.968 105.048L232.748 104.424L233.606 104.918L234.49 104.268L235.348 104.918L236.336 104.346L237.298 104.918L237.87 105.724L237.194 106.452L237.064 107.414L236.076 107.544L235.53 108.636L234.334 108.454L233.84 109.286L233.008 108.818L232.046 109.806L230.408 109ZM230.2 97.534L229.602 96.78L228.64 97.092L228.614 98.236L229.628 98.184L230.2 97.534ZM227.574 98.704L226.95 97.222L225.182 97.82L225.806 99.224L226.872 99.848L227.574 98.704ZM231.422 97.534L231.136 97.638L230.928 98.002L231.422 98.262L231.578 97.82L231.422 97.534ZM233.918 97.898L232.904 97.612L232.514 98.34L232.826 98.886L233.762 99.016L233.918 97.898ZM230.746 100.784L231.266 100.368L231.786 100.784L231.578 100.212L232.202 100.186L231.578 99.822L231.942 99.198L231.344 99.172L231.11 98.626L230.746 99.198L230.122 98.86L230.174 99.458L229.654 99.77L229.94 100.29L230.746 100.784ZM228.692 100.68L228.25 100.862L228.328 101.278L228.718 101.512L229.03 101.096L228.692 100.68ZM235.062 101.33L234.672 100.992L234.256 101.408L234.516 101.928L235.088 101.85L235.062 101.33ZM236.726 101.2L236.414 101.226V101.538L236.674 101.668L236.96 101.434L236.726 101.2ZM229.758 101.408H229.446L229.238 101.694L229.55 101.876L229.862 101.746L229.758 101.408ZM225.39 102.136L224.506 102.578L224.896 103.514L225.754 103.462L225.858 102.734L225.39 102.136ZM229.992 102.604L229.524 102.708L229.758 103.15L230.2 103.306L230.382 102.838L229.992 102.604ZM235.322 105.282L234.49 105.256L234.36 106.088L235.01 106.27L235.738 106.01L235.322 105.282ZM228.094 105.646L227.34 105.49L226.95 105.958L227.314 106.4L228.042 106.504L228.094 105.646ZM231.474 106.452L231.058 106.686L231.11 107.18L231.63 107.232L231.76 106.816L231.474 106.452ZM243.773 108.402L242.759 107.856L243.773 107.258L243.253 106.53L243.773 105.802L243.227 105.074L243.773 104.346L242.837 103.306L243.773 102.266L243.019 101.174L243.773 100.082L243.123 100.498L242.837 99.77L242.265 100.446L241.719 99.77L241.043 100.472L240.367 99.77L239.483 99.224L239.613 98.21L238.989 97.716L239.613 97.196L239.353 96.13L240.367 95.74L241.303 94.934L242.239 95.74L243.279 95.142L244.319 95.74L245.307 95.142L246.295 95.74L246.893 94.96L247.517 95.74L248.141 95.09L248.765 95.74L249.649 95.194L250.533 95.74L251.469 94.934L252.405 95.74L253.237 95.844L253.367 96.702L254.017 97.196L253.367 97.716L254.277 98.314L253.367 98.912L253.549 99.744L252.717 99.77L251.729 100.732L250.767 99.77L250.091 100.628L249.207 99.978L249.987 101.07L249.207 102.162L250.195 102.994L249.207 103.826L250.195 104.554L249.207 105.282L250.117 106.114L249.207 106.946L249.363 107.96L248.661 108.74L248.037 109.728L247.413 108.74L246.347 109.364L245.255 108.74L244.735 109.754L243.773 108.402ZM245.723 96.832L244.813 96.286L243.591 96.91L244.345 98.21L245.567 97.924L245.723 96.832ZM248.661 96.858L248.089 96.468L247.283 96.806L247.569 97.794L248.661 97.82V96.858ZM251.235 96.676L250.429 97.118L250.273 97.898L251.131 98.418L251.703 97.56L251.235 96.676ZM242.369 97.664L241.485 96.832L240.549 97.352L240.679 98.314L241.589 98.444L242.369 97.664ZM243.487 98.678L242.993 98.704L242.681 99.094L243.097 99.406L243.565 99.224L243.487 98.678ZM247.933 99.77L247.335 99.302L246.269 99.562L246.633 100.836L247.673 100.498L247.933 99.77ZM248.479 104.138L246.789 102.916L245.853 104.45L246.035 106.062L247.855 105.932L248.479 104.138ZM244.683 105.334H244.475L244.267 105.49L244.475 105.672L244.631 105.542L244.683 105.334ZM257.972 108.818L256.984 108.974L256.438 108.168L255.372 108.324L255.45 107.258L254.384 107.232L254.93 106.348L253.968 105.49L254.774 104.502L254.332 103.436L255.424 103.072L255.762 102.084L256.802 101.954L257.478 101.252L258.466 101.278L259.038 100.784L259.792 100.966L260.208 100.238L260.832 100.784L261.248 100.108L261.846 100.628L262.21 99.744H263.172L262.158 99.614L262.028 98.6L261.794 99.51L260.884 99.224L260.468 99.926L259.818 99.432L259.012 99.796L258.18 99.432L257.244 99.848L256.334 99.432L255.71 99.458L255.658 98.834L255.164 97.82L256.282 97.638L256.75 96.624L257.842 96.416L258.232 95.584L259.09 95.896L259.792 94.908L260.832 95.558L261.352 94.804L261.976 95.48L262.678 94.83L263.328 95.532L263.926 94.96L264.368 95.662L265.33 95.116L265.876 96.078L266.89 95.74L267.124 96.78L268.06 96.858V97.768L268.944 98.106L268.632 98.99L269.672 99.302L268.84 100.004L269.386 100.602L268.892 101.252L269.594 102.084L268.892 102.916L269.776 103.54L268.892 104.164L269.49 104.814L268.892 105.49L269.594 106.27L268.892 107.05L269.074 108.038L268.346 108.74L267.722 109.598L267.098 108.74L266.266 109.26L265.46 108.74L264.55 109.52L263.666 108.688L263.302 108.506L263.276 108.766L262.184 108.22L262.08 109.156L261.248 108.714L260.546 109.78L257.972 108.818ZM264.914 96.806L264.472 96.91L264.42 97.404L264.966 97.82L265.382 97.17L264.914 96.806ZM268.32 99.016L267.592 98.626L267.15 99.406L267.722 99.9L268.45 99.77L268.32 99.016ZM263.406 101.252L263.068 101.174L262.808 101.434L263.042 101.72L263.302 101.538L263.406 101.252ZM267.878 101.356L267.514 101.226L267.046 101.434L267.358 101.928L267.774 101.72L267.878 101.356ZM265.356 101.278L264.03 102.11L264.212 103.618L265.772 103.852L266.032 102.5L265.356 101.278ZM261.04 101.876L260.754 101.278L259.922 101.408L259.948 102.344L260.754 102.474L261.04 101.876ZM262.704 102.656L262.444 102.604V102.89L262.626 103.02L262.808 102.864L262.704 102.656ZM262.418 105.36L262.522 104.788L263.068 104.554L262.86 103.982L263.25 103.514L262.834 103.566L262.756 103.176L262.34 103.566L261.794 103.384L261.378 103.774L260.806 103.67L260.65 104.216L260.104 104.372L260.702 104.736L260.338 105.334L260.936 105.126L262.418 105.36ZM267.488 105.23L265.642 104.788L265.278 106.738L266.734 107.752L267.982 106.66L267.488 105.23ZM258.544 105.23L258.258 105.386L258.388 105.698L258.778 105.802L258.83 105.412L258.544 105.23ZM256.62 105.334L256.308 105.36L256.36 105.672L256.672 105.776L256.854 105.49L256.62 105.334ZM260.936 106.426L260.416 106.166L259.844 106.504L260.078 107.31L260.858 107.05L260.936 106.426ZM258.83 107.18H258.128L258.18 107.96L258.83 108.168L259.246 107.648L258.83 107.18ZM271.623 113.342L271.103 112.614L271.623 111.886L270.999 110.898L271.623 109.91L271.103 108.974L271.623 108.038L271.051 107.05L271.623 106.062L270.661 105.022L271.623 103.982L270.765 103.098L271.623 102.214L270.635 101.174L271.623 100.134L270.869 99.406L271.623 98.678L270.661 98.054L271.623 97.43L270.687 96.65L271.675 95.948L272.559 95.038L273.599 95.74L274.171 94.934L274.743 95.74L275.315 95.168L275.861 95.74L276.875 95.844L276.927 96.858L277.447 95.792L278.591 96.078L278.747 95.064L279.579 95.662L279.969 94.804L280.619 95.506L281.555 94.674L282.387 95.61L283.245 95.064L283.583 96H284.857L285.091 97.274L286.001 97.794L285.897 98.86L287.015 99.666L286.261 100.81L286.989 101.928L286.287 103.072L286.911 103.644L286.235 104.112L286.677 105.36L285.637 106.218L285.715 107.388L284.571 107.726L284.051 108.766L282.881 108.714L282.127 109.546L281.139 109L280.307 109.936L279.657 108.844L278.539 109.026L278.123 107.96L278.435 109.052L277.317 108.818L278.071 109.91L277.317 110.976L277.915 111.808L277.317 112.614L277.577 113.342L276.875 113.68L276.303 114.356L275.757 113.68L274.717 114.668L273.703 113.68L272.871 114.512L271.623 113.342ZM279.345 96.416L279.241 96.208L279.033 96.364V96.572L279.319 96.702L279.345 96.416ZM282.543 96.936L281.009 97.586L280.281 98.964L281.789 99.666L282.751 98.6L282.543 96.936ZM275.159 97.456L274.899 97.664L275.029 97.898L275.289 98.028L275.341 97.716L275.159 97.456ZM274.561 99.146L274.353 99.38L274.431 99.588L274.717 99.718L274.795 99.38L274.561 99.146ZM272.871 99.484L272.559 99.198L272.117 99.432L272.247 100.004L272.793 99.9L272.871 99.484ZM279.293 104.84L279.475 104.19L280.125 104.242L279.891 103.618L280.437 103.228L280.021 102.682L280.463 102.188L279.943 101.694L280.411 101.148L279.917 100.758L280.073 100.16L279.449 100.212L279.189 99.64L278.747 100.368L278.149 99.744L278.045 100.342L277.473 100.524L277.863 101.122L277.317 101.564L277.759 102.084L277.291 102.604L277.603 103.098L277.343 103.644L277.915 103.93L277.863 104.58L278.435 104.45L279.293 104.84ZM276.017 101.46L274.873 101.382L274.795 102.708L275.887 102.76L276.485 102.214L276.017 101.46ZM284.571 102.474L282.959 101.512L281.607 102.76L281.919 105.048L284.311 104.502L284.571 102.474ZM273.547 102.76L272.975 102.838L272.793 103.436L273.365 103.722L273.651 103.254L273.547 102.76ZM276.069 104.216L274.197 103.904L274.041 105.464L274.665 106.582L275.731 105.776L276.069 104.216ZM275.991 107.648L275.705 107.466L275.419 107.596L275.471 107.934L275.861 108.012L275.991 107.648ZM280.281 108.246L280.021 108.402L280.125 108.714L280.411 108.688L280.619 108.402L280.281 108.246ZM273.989 108.402L273.235 108.714L273.183 109.468L273.911 109.754L274.171 109.13L273.989 108.402ZM276.017 110.534L275.523 110.066L274.899 110.326L275.055 110.95L275.653 111.106L276.017 110.534ZM289.021 108.688L288.163 107.804L288.813 106.738L288.007 106.114L288.813 105.49L288.163 104.892L288.813 104.268L288.111 103.644L288.813 103.02L288.163 102.136L288.813 101.252L287.981 100.212L288.813 99.198L287.851 98.21L288.813 97.222L288.865 96.26L289.671 95.74L290.659 95.116L291.621 95.74L292.661 95.116L293.701 95.74L294.533 95.87L294.351 96.702L295.027 97.43L294.351 98.132L294.923 99.068L294.351 100.004L294.871 100.784L294.845 100.55L295.729 100.212L295.859 98.99L296.925 98.392L296.691 97.612L297.471 97.534L296.977 96.442L298.147 96.494L298.563 95.506L299.603 95.74L300.175 95.116L300.747 95.74L301.501 94.83L302.281 95.74L302.931 95.142L303.425 95.87L304.127 96.754L303.555 97.742L304.517 98.522L303.555 99.276L304.283 99.848L303.555 100.42L304.439 101.46L303.555 102.5L304.205 103.02L303.555 103.54L304.335 104.32L303.555 105.1L304.413 106.01L303.555 106.946L304.387 108.012L303.217 108.74L302.671 109.702L302.073 108.74L301.501 109.39L300.929 108.74L300.435 109.442L299.915 108.74L299.395 109.39L298.875 108.74L297.991 108.402L298.017 107.466L297.445 106.426L298.017 105.412L297.575 104.372L298.017 103.332L297.835 102.994L297.861 103.54L296.847 103.93L296.951 105.1L295.833 105.49L295.963 106.374L295.105 106.608V107.908L293.935 108.428L293.389 109.494L292.453 108.74L291.517 109.338L290.607 108.74L289.931 109.312L289.021 108.688ZM299.083 97.3L297.835 97.846L297.861 99.276L299.421 99.822L300.019 98.34L299.083 97.3ZM292.375 97.56L291.647 97.742L291.881 98.47L292.531 98.678L292.791 98.054L292.375 97.56ZM303.139 99.146L302.905 99.354L303.009 99.614H303.269L303.321 99.38L303.139 99.146ZM293.805 100.472L293.623 100.524L293.545 100.706L293.753 100.758L293.909 100.628L293.805 100.472ZM294.897 101.512L294.871 101.148L294.585 101.616L294.897 101.512ZM290.893 101.304L290.451 101.148L290.243 101.59L290.555 102.006L291.075 101.772L290.893 101.304ZM296.249 102.162L295.781 101.564L295.027 101.954L295.287 102.734L296.067 102.89L296.249 102.162ZM302.463 101.928H302.151L302.021 102.24L302.307 102.448L302.541 102.214L302.463 101.928ZM290.633 103.306L289.697 103.228L289.281 103.748L289.619 104.398L290.477 104.32L290.633 103.306ZM300.305 103.618L299.967 103.228L299.317 103.436L299.629 104.034L300.149 104.086L300.305 103.618ZM293.727 104.476L293.155 104.528L293.285 105.178L293.935 105.282L294.065 104.71L293.727 104.476ZM292.271 105.464L291.803 104.944L291.179 105.308L291.387 105.906L291.985 106.062L292.271 105.464ZM299.967 105.1L298.953 105.542L298.979 106.374L299.759 107.258L300.357 106.166L299.967 105.1ZM291.543 107.128L291.361 106.972L291.205 107.18L291.361 107.336H291.543V107.128ZM293.935 107.648L293.753 107.622L293.597 107.778L293.753 107.96L293.935 107.83V107.648ZM303.113 108.168L302.931 108.012L302.801 108.22L302.905 108.402H303.139L303.113 108.168ZM307.249 112.25L306.365 111.6L307.249 110.924L307.067 110.118L307.795 109.676L308.445 109.026L309.095 109.65L309.329 108.688L310.317 108.74L310.005 107.648H310.031L309.225 107.024L309.355 105.984L308.211 105.724L308.809 104.736L307.899 104.398L308.289 103.514L307.041 103.02L307.561 101.798L306.625 101.07L306.729 99.9L305.949 99.614L306.287 98.834L305.351 98.054L305.429 96.858L305.143 96.208L305.637 95.74L306.703 94.882L307.769 95.74L308.809 95.116L309.823 95.74L310.603 96.104L310.811 96.962L311.669 97.508L311.357 98.496L312.241 98.834L311.773 99.666L312.475 100.29L312.345 101.226L312.891 101.694L312.865 101.252L313.593 100.55L313.489 99.718L314.139 99.198L313.775 98.21L314.711 97.742L314.399 96.39L315.673 95.792L316.479 95.142L317.311 95.74L317.935 95.064L318.533 95.74L319.053 95.194L319.547 95.74L320.353 95.246L320.509 96.182L320.795 97.04L319.989 97.43L320.197 98.574L319.261 99.25L319.781 100.316L318.663 100.68L319.365 101.642L318.195 101.85L318.585 103.02L317.493 103.566L317.987 104.398L317.051 104.632L317.285 105.672L316.401 106.244L316.947 107.258L315.855 107.596L316.401 108.792L315.153 109.234L315.543 110.664L314.139 111.158L313.931 112.276L312.839 112.666L312.423 113.732L311.279 113.472L310.707 114.46L309.849 113.68L308.783 114.434L307.249 112.25ZM319.625 96.338H319.235L319.079 96.598L319.235 97.066L319.625 96.754V96.338ZM308.705 96.416L308.185 96.572L308.081 97.014L308.471 97.3L308.939 96.962L308.705 96.416ZM310.785 98.886L309.771 98.678L309.251 99.51L309.849 100.368L310.577 99.77L310.785 98.886ZM311.253 102.058L310.915 101.954L310.837 102.344L311.123 102.474L311.435 102.344L311.253 102.058ZM316.869 103.072L314.607 102.032L313.619 103.566L313.879 103.774L313.645 104.788L313.567 105.1L313.593 105.906L316.037 105.412L316.869 103.072ZM311.305 103.332L310.811 103.202L310.733 103.67L311.019 103.956L311.461 103.8L311.305 103.332ZM313.853 108.428L312.683 107.804L311.825 108.532L312.111 109.598H313.255L313.853 108.428ZM312.189 110.872L311.357 111.158L311.019 111.964L311.851 112.172L312.241 111.678L312.189 110.872ZM310.421 112.146L310.057 112.042L309.667 112.302L310.005 112.64L310.369 112.536L310.421 112.146ZM322.455 107.856L321.493 107.076L322.455 106.296L321.857 105.464L322.455 104.632L321.571 103.852L322.455 103.072L321.623 102.448L322.455 101.824L321.857 101.252L322.455 100.68L321.909 99.952L322.455 99.224L321.779 98.444L322.455 97.664L321.961 96.572L322.819 95.74L323.755 95.168L324.691 95.74L325.289 95.09L325.913 95.74L326.433 94.856L326.953 95.74L327.889 95.818L328.123 96.754L329.527 97.092L329.189 98.496L330.125 98.834L329.995 99.796L330.905 99.978L330.827 100.238H331.347L331.321 99.51L331.971 99.198L331.997 98.132L332.933 97.612L332.855 96.468L333.895 96.052L334.753 95.246L335.793 95.74L336.313 94.908L336.807 95.74L337.431 94.856L338.055 95.74L339.069 95.844L339.173 96.832L340.161 97.56L339.173 98.288L339.771 98.912L339.173 99.536L339.771 100.368L339.173 101.2L339.693 101.824L339.173 102.448L339.901 103.28L339.173 104.112L339.979 104.892L339.173 105.672L339.797 106.608L339.173 107.544L339.329 108.298L338.679 108.74L338.159 109.39L337.639 108.74L336.807 109.65L335.975 108.74L334.987 109.65L333.999 108.74L333.011 107.96L333.739 106.92L333.323 106.348L333.739 105.776L333.323 104.892L332.647 105.334L332.751 106.088L332.049 106.296L331.893 107.05L331.165 106.842L330.645 107.622L330.125 106.842L329.241 106.322L328.929 105.334L328.201 104.84L328.149 104.45L327.863 104.866L328.513 105.88L327.863 106.92L328.877 107.7L327.863 108.48L327.473 109.208L326.771 108.74L325.835 109.364L324.899 108.74L323.807 109.572L322.455 107.856ZM338.809 96.832L338.627 96.286L338.237 96.702L338.185 97.144H338.627L338.809 96.832ZM335.767 96.936L335.325 96.572L334.753 96.65L334.779 97.326L335.377 97.404L335.767 96.936ZM337.379 97.716L336.989 97.3L336.521 97.56L336.573 98.08L337.067 98.106L337.379 97.716ZM334.285 97.482L333.791 97.378L333.531 97.638L333.661 98.002L334.051 97.898L334.285 97.482ZM325.913 98.626L325.627 98.132L325.081 98.418L325.003 99.146L325.783 99.25L325.913 98.626ZM327.603 98.808L327.109 98.678L326.901 99.068L327.135 99.406L327.577 99.302L327.603 98.808ZM333.193 98.73L332.673 99.406L332.803 99.978H333.401L333.947 99.38L333.193 98.73ZM324.249 99.25L323.937 99.302V99.562L324.145 99.692L324.353 99.536L324.249 99.25ZM336.781 99.536L336.287 99.562L336.183 99.978L336.469 100.238L336.755 100.004L336.781 99.536ZM323.755 100.576L323.365 100.368L322.975 100.654L323.261 101.018H323.677L323.755 100.576ZM328.487 101.2L328.149 101.044L328.071 101.408L328.227 101.642L328.539 101.538L328.487 101.2ZM331.425 101.486L330.957 101.46L330.645 101.72L330.879 102.11L331.347 102.006L331.425 101.486ZM333.427 101.902L332.543 101.928L331.945 102.448L332.413 103.358L333.297 102.916L333.271 102.864L333.349 102.734L333.427 101.902ZM330.385 102.266L329.605 102.11L329.423 102.734L329.709 103.228L330.177 102.942L330.385 102.266ZM338.289 102.708L337.405 102.968L337.041 103.826L337.925 104.32L338.497 103.592L338.289 102.708ZM335.585 104.19L335.117 104.45L335.273 104.866L335.689 105.022L335.923 104.606L335.585 104.19ZM330.125 104.554L329.943 104.242L329.475 104.294L329.501 104.814H329.943L330.125 104.554ZM326.771 105.698L325.575 104.502L324.873 106.062L325.471 106.998L326.927 107.232L326.771 105.698ZM337.795 104.944L336.573 105.23V106.374L337.483 106.582L338.367 106.036L337.795 104.944ZM330.567 105.932L330.385 105.802L330.125 105.88L330.281 106.114H330.463L330.567 105.932ZM334.623 107.206L334.493 106.972L334.233 107.128L334.337 107.336L334.545 107.414L334.623 107.206ZM336.989 107.466L336.313 107.388L336.183 108.038L336.625 108.584L337.275 108.142L336.989 107.466Z" fill="black"/>
<rect x="2" y="2" width="356" height="199" rx="38" stroke="black" stroke-width="4"/>
<path d="M201.5 170C203.667 162.5 210.439 148.061 215 143.5C219.5 139 221.5 137 230.5 136.5C237 136.139 245 144 246 146C249.5 153 253.251 149.086 256.5 161C258 166.5 257.034 173.653 255.5 178C252.5 186.5 246.096 183.554 245 171.5C244.5 166 247 161 248.5 158C249.932 155.136 250.385 153 252.5 150.5C258.214 143.747 262 145.5 268.5 146C275 146.5 280 152 282 156C283.5 159 286.5 166 288 172.5C289 176.833 289 178 289 182" stroke="black" stroke-width="4"/>
<g filter="url(#filter1_d_39_2)">
<circle cx="229" cy="126" r="7" fill="#ADD8E6"/>
<circle cx="229" cy="126" r="6" stroke="black" stroke-width="2"/>
</g>
<g filter="url(#filter2_d_39_2)">
<circle cx="269" cy="135" r="7" fill="#ADD8E6"/>
<circle cx="269" cy="135" r="6" stroke="black" stroke-width="2"/>
</g>
<path d="M257 146L266 193L275 151.875" stroke="black" stroke-width="4"/>
<path d="M219.5 148L228 195.5L238 152.5L239.5 143.5L241.5 141" stroke="black" stroke-width="4"/>
<defs>
<filter id="filter0_d_39_2" x="101.44" y="20" width="23.119" height="23.1857" filterUnits="userSpaceOnUse" color-interpolation-filters="sRGB">
<feFlood flood-opacity="0" result="BackgroundImageFix"/>
<feColorMatrix in="SourceAlpha" type="matrix" values="0 0 0 0 0 0 0 0 0 0 0 0 0 0 0 0 0 0 127 0" result="hardAlpha"/>
<feOffset dx="1" dy="1"/>
<feGaussianBlur stdDeviation="1.5"/>
<feComposite in2="hardAlpha" operator="out"/>
<feColorMatrix type="matrix" values="0 0 0 0 0 0 0 0 0 0 0 0 0 0 0 0 0 0 0.25 0"/>
<feBlend mode="normal" in2="BackgroundImageFix" result="effect1_dropShadow_39_2"/>
<feBlend mode="normal" in="SourceGraphic" in2="effect1_dropShadow_39_2" result="shape"/>
</filter>
<filter id="filter1_d_39_2" x="218" y="119" width="22" height="22" filterUnits="userSpaceOnUse" color-interpolation-filters="sRGB">
<feFlood flood-opacity="0" result="BackgroundImageFix"/>
<feColorMatrix in="SourceAlpha" type="matrix" values="0 0 0 0 0 0 0 0 0 0 0 0 0 0 0 0 0 0 127 0" result="hardAlpha"/>
<feOffset dy="4"/>
<feGaussianBlur stdDeviation="2"/>
<feComposite in2="hardAlpha" operator="out"/>
<feColorMatrix type="matrix" values="0 0 0 0 0 0 0 0 0 0 0 0 0 0 0 0 0 0 0.25 0"/>
<feBlend mode="normal" in2="BackgroundImageFix" result="effect1_dropShadow_39_2"/>
<feBlend mode="normal" in="SourceGraphic" in2="effect1_dropShadow_39_2" result="shape"/>
</filter>
<filter id="filter2_d_39_2" x="258" y="128" width="22" height="22" filterUnits="userSpaceOnUse" color-interpolation-filters="sRGB">
<feFlood flood-opacity="0" result="BackgroundImageFix"/>
<feColorMatrix in="SourceAlpha" type="matrix" values="0 0 0 0 0 0 0 0 0 0 0 0 0 0 0 0 0 0 127 0" result="hardAlpha"/>
<feOffset dy="4"/>
<feGaussianBlur stdDeviation="2"/>
<feComposite in2="hardAlpha" operator="out"/>
<feColorMatrix type="matrix" values="0 0 0 0 0 0 0 0 0 0 0 0 0 0 0 0 0 0 0.25 0"/>
<feBlend mode="normal" in2="BackgroundImageFix" result="effect1_dropShadow_39_2"/>
<feBlend mode="normal" in="SourceGraphic" in2="effect1_dropShadow_39_2" result="shape"/>
</filter>
</defs>
</svg>
